<svg width="250" height="150" viewBox="0 0 250 150" fill="none" xmlns="http://www.w3.org/2000/svg">
<rect x="0.5" y="0.5" width="249" height="149" fill="white" stroke="black"/>
<line y1="74" x2="250" y2="75" stroke="black"/>
<line x1="93.1" y1="2.18557e-08" x2="92.5" y2="150" stroke="black"/>
<line x1="31.1" y1="2.18557e-08" x2="30.5" y2="150" stroke="black"/>
<line x1="217.1" y1="2.18557e-08" x2="216.5" y2="150" stroke="black"/>
<line x1="186.1" y1="2.18557e-08" x2="185.5" y2="150" stroke="black"/>
<line x1="155.1" y1="2.18557e-08" x2="154.5" y2="150" stroke="black"/>
<line x1="124.1" y1="2.18557e-08" x2="123.5" y2="150" stroke="black"/>
<line x1="62.1" y1="2.18557e-08" x2="61.5" y2="150" stroke="black"/>
<path d="M139 39C141.206 39 143 37.206 143 35C143 32.794 141.206 31 139 31C136.794 31 135 32.794 135 35C135 37.206 136.794 39 139 39ZM139 33C140.103 33 141 33.897 141 35C141 36.103 140.103 37 139 37C137.897 37 137 36.103 137 35C137 33.897 137.897 33 139 33Z" fill="#4D77FF"/>
<path d="M138.42 46.814C138.589 46.9349 138.792 46.9998 139 46.9998C139.208 46.9998 139.411 46.9349 139.58 46.814C139.884 46.599 147.029 41.44 147 35C147 30.589 143.411 27 139 27C134.589 27 131 30.589 131 34.995C130.971 41.44 138.116 46.599 138.42 46.814ZM139 29C142.309 29 145 31.691 145 35.005C145.021 39.443 140.612 43.428 139 44.735C137.389 43.427 132.979 39.441 133 35C133 31.691 135.691 29 139 29Z" fill="#4D77FF"/>
</svg>
